name D:\school\WTK\thesis\model\3dpredictsim\Results\MidTarsalJoint\Fal_s1_bCst_PF_Natali2010_ls150_MT_k10000_MTP_T5_ig23.mot
datacolumns 128
datarows 4
range 0.00000000 0.03325296
endheader
time	pelvis_tilt	pelvis_list	pelvis_rotation	pelvis_tx	pelvis_ty	pelvis_tz	hip_flexion_l	hip_adduction_l	hip_rotation_l	hip_flexion_r	hip_adduction_r	hip_rotation_r	knee_angle_l	knee_angle_r	ankle_angle_l	ankle_angle_r	subtalar_angle_l	subtalar_angle_r	mtj_angle_l	mtj_angle_r	mtp_angle_l	mtp_angle_r	lumbar_extension	lumbar_bending	lumbar_rotation	arm_flex_l	arm_add_l	arm_rot_l	arm_flex_r	arm_add_r	arm_rot_r	elbow_flex_l	elbow_flex_r	pro_sup_l	pro_sup_r	glut_med1_l/activation	glut_med2_l/activation	glut_med3_l/activation	glut_min1_l/activation	glut_min2_l/activation	glut_min3_l/activation	semimem_l/activation	semiten_l/activation	bifemlh_l/activation	bifemsh_l/activation	sar_l/activation	add_long_l/activation	add_brev_l/activation	add_mag1_l/activation	add_mag2_l/activation	add_mag3_l/activation	tfl_l/activation	pect_l/activation	grac_l/activation	glut_max1_l/activation	glut_max2_l/activation	glut_max3_l/activation	iliacus_l/activation	psoas_l/activation	quad_fem_l/activation	gem_l/activation	peri_l/activation	rect_fem_l/activation	vas_med_l/activation	vas_int_l/activation	vas_lat_l/activation	med_gas_l/activation	lat_gas_l/activation	soleus_l/activation	tib_post_l/activation	flex_dig_l/activation	flex_hal_l/activation	tib_ant_l/activation	per_brev_l/activation	per_long_l/activation	per_tert_l/activation	ext_dig_l/activation	ext_hal_l/activation	ercspn_l/activation	intobl_l/activation	extobl_l/activation	glut_med1_r/activation	glut_med2_r/activation	glut_med3_r/activation	glut_min1_r/activation	glut_min2_r/activation	glut_min3_r/activation	semimem_r/activation	semiten_r/activation	bifemlh_r/activation	bifemsh_r/activation	sar_r/activation	add_long_r/activation	add_brev_r/activation	add_mag1_r/activation	add_mag2_r/activation	add_mag3_r/activation	tfl_r/activation	pect_r/activation	grac_r/activation	glut_max1_r/activation	glut_max2_r/activation	glut_max3_r/activation	iliacus_r/activation	psoas_r/activation	quad_fem_r/activation	gem_r/activation	peri_r/activation	rect_fem_r/activation	vas_med_r/activation	vas_int_r/activation	vas_lat_r/activation	med_gas_r/activation	lat_gas_r/activation	soleus_r/activation	tib_post_r/activation	flex_dig_r/activation	flex_hal_r/activation	tib_ant_r/activation	per_brev_r/activation	per_long_r/activation	per_tert_r/activation	ext_dig_r/activation	ext_hal_r/activation	ercspn_r/activation	intobl_r/activation	extobl_r/activation	
          0.00000000	         -2.92968791	         -1.99104573	          4.92732251	          0.00000000	          0.91978474	         -0.00194491	        -17.70732984	         -0.93899772	          6.15619674	         29.41312206	          3.39025048	         -2.19471460	         -5.89275128	        -12.51206154	          0.00533931	          6.29167304	          7.88523636	         -4.43289868	          0.16070857	         -0.00054610	         20.69502260	         -0.89556532	         -2.16020010	          0.29441701	         -1.87786690	          5.46261757	        -13.45810293	         17.20316702	         -4.33373214	        -13.45926933	          7.77692668	         32.34597700	         15.73422777	         86.51662706	         86.51662706	          0.26802863	          0.09850803	          0.07049173	          0.30364508	          0.19406572	          0.10975164	          0.05000101	          0.05000032	          0.05000021	          0.06135844	          0.09856634	          0.10787241	          0.05006419	          0.05000242	          0.05000338	          0.05000101	          0.30888497	          0.09902301	          0.05000415	          0.05000430	          0.05000305	          0.05000274	          0.39086937	          0.64591472	          0.05000136	          0.05000085	          0.05974628	          0.21187443	          0.05021760	          0.05006502	          0.05001459	          0.29051266	          0.40033216	          0.29569847	          0.29891765	          0.30831665	          0.40136514	          0.05000004	          0.05923543	          0.12008839	          0.05000027	          0.05000007	          0.05000026	          0.05000005	          0.05000012	          0.05000012	          0.05923624	          0.05923630	          0.05000019	          0.05923696	          0.05923690	          0.05000471	          0.10259725	          0.05000335	          0.22119011	          0.05000017	          0.05000045	          0.13826302	          0.31634809	          0.14957870	          0.14640971	          0.11035410	          0.05000018	          0.08314497	          0.07224788	          0.05000053	          0.12569418	          0.16080173	          0.05500437	          0.05000050	          0.16644076	          0.26705103	          0.13222823	          0.05618215	          0.14331722	          0.13862496	          0.12631264	          0.05028876	          0.05022580	          0.05364439	          0.05000002	          0.05000067	          0.05000024	          0.57720038	          0.27397607	          0.16887283	          0.26226263	          0.49738652	          0.23811527	          0.05982927	          0.10730720	          0.10199179	
          0.01108432	         -2.92519792	         -2.09057176	          5.21438215	          0.01660724	          0.91871891	         -0.00173899	        -17.56439146	         -1.23828637	          5.93833291	         28.81091925	          3.72644387	         -1.94942070	         -7.83820356	        -12.72293352	         -0.72293262	          5.67593373	          8.77452582	         -4.80937337	          0.12181658	         -0.00498083	         21.65509349	         -0.87943370	         -1.96895386	          0.50998468	         -1.94027537	          5.19554800	        -13.46771483	         17.48482988	         -5.18618712	        -13.46080445	          7.47115488	         33.48413840	         15.40294653	         86.51662706	         86.51662706	          0.22623449	          0.08314751	          0.05949986	          0.25629735	          0.16380475	          0.09263792	          0.05000429	          0.05000101	          0.05000123	          0.05179080	          0.08319695	          0.19340741	          0.07274552	          0.07019001	          0.05923377	          0.05923848	          0.26072013	          0.08359178	          0.05000652	          0.05000547	          0.05000419	          0.05000624	          0.32992045	          0.59706986	          0.05000184	          0.05923644	          0.05923581	          0.17883694	          0.15630069	          0.15775544	          0.14779560	          0.24521245	          0.33790760	          0.24958967	          0.26488130	          0.26024120	          0.33878154	          0.05000006	          0.05000016	          0.13390760	          0.05000017	          0.05000006	          0.05000026	          0.05936008	          0.06156785	          0.05285218	          0.05000002	          0.05000008	          0.10392710	          0.05000008	          0.05000010	          0.05000015	          0.08659915	          0.05000075	          0.18669957	          0.05000078	          0.05003299	          0.11670370	          0.26702004	          0.31616773	          0.21543979	          0.13275187	          0.05000085	          0.07018292	          0.12953262	          0.06990630	          0.11321717	          0.13572798	          0.05000017	          0.05000610	          0.40843629	          0.22540928	          0.11160968	          0.06071845	          0.14127614	          0.15058234	          0.12515736	          0.05000039	          0.05924037	          0.05000005	          0.06956901	          0.05000666	          0.05923835	          0.48719644	          0.32486199	          0.21028330	          0.22136772	          0.43837754	          0.20098556	          0.05049998	          0.09057458	          0.08608801	
          0.02216864	         -2.91689914	         -2.19336179	          5.47473459	          0.03347557	          0.91769814	         -0.00154496	        -17.34125904	         -1.53611282	          5.70819698	         28.08718075	          3.98557624	         -1.68591936	         -9.91564263	        -13.24486386	         -1.62291554	          5.19580002	          9.61597334	         -5.20621870	          0.07925113	         -0.00640331	         22.45754279	         -0.94627923	         -1.75933845	          0.73551635	         -1.99173349	          4.85667110	        -13.47577237	         17.69461919	         -6.06345675	        -13.46875391	          7.21325004	         34.60894045	         15.12376513	         86.51662706	         86.51662706	          0.31831872	          0.07018219	          0.05022199	          0.31358518	          0.13826246	          0.07819277	          0.05000204	          0.05000035	          0.05000029	          0.05000028	          0.07022424	          0.16324958	          0.07103415	          0.05924558	          0.05000339	          0.05000213	          0.23369412	          0.07081259	          0.05000210	          0.05000319	          0.05000199	          0.05000151	          0.27847545	          0.55839309	          0.05000036	          0.05000113	          0.05000033	          0.15095065	          0.13192897	          0.13315689	          0.12475006	          0.20697598	          0.28521701	          0.21067066	          0.22357801	          0.21966158	          0.28595496	          0.05000003	          0.10172411	          0.15448733	          0.05000019	          0.05000004	          0.05000020	          0.05516272	          0.05196746	          0.05000007	          0.23830233	          0.23276237	          0.28078980	          0.35632512	          0.22630495	          0.19478756	          0.08747188	          0.05000118	          0.15842229	          0.05000744	          0.05000570	          0.09850593	          0.22538318	          0.26686721	          0.18184604	          0.11722060	          0.05000093	          0.05924140	          0.10933486	          0.13768338	          0.13818360	          0.11456385	          0.05923660	          0.05000242	          0.34474810	          0.19026095	          0.21272099	          0.05125055	          0.11924680	          0.12710187	          0.10564142	          0.05000096	          0.05000316	          0.05065897	          0.05872106	          0.05000060	          0.05000160	          0.57236737	          0.33807358	          0.17749393	          0.33387038	          0.52794444	          0.16964823	          0.06410230	          0.11228306	          0.07266415	
          0.03325296	         -2.90700867	         -2.28915700	          5.70288228	          0.05039604	          0.91674688	         -0.00132765	        -17.01125709	         -1.82334207	          5.48095225	         27.30730640	          4.22642681	         -1.42506256	        -12.14610213	        -13.72018413	         -2.69224686	          4.76612926	         10.41295878	         -5.61232386	          0.03930069	         -0.00762166	         23.04654073	         -0.93960679	         -1.55366806	          0.96029567	         -2.03499890	          4.48033964	        -13.48981783	         17.85584886	         -6.91823114	        -13.47706338	          7.00685776	         35.70187808	         14.87164699	         86.51662706	         86.51662706	          0.29833974	          0.05923859	          0.05000013	          0.26609035	          0.11670302	          0.06600009	          0.05000388	          0.05000040	          0.05000033	          0.05000028	          0.05927431	          0.17333942	          0.05995901	          0.05000924	          0.05000483	          0.05000473	          0.20389008	          0.05977211	          0.05000155	          0.05000323	          0.05000215	          0.05000172	          0.23505229	          0.50990572	          0.05000030	          0.05000104	          0.05000030	          0.12741267	          0.12499122	          0.12820729	          0.11668901	          0.17470181	          0.24074256	          0.17782036	          0.18871512	          0.18540951	          0.24136560	          0.05000010	          0.12138699	          0.15762868	          0.05000036	          0.05000107	          0.05000041	          0.08290474	          0.05000002	          0.05000006	          0.32397313	          0.32905266	          0.36237739	          0.30076299	          0.19101786	          0.19141607	          0.07383715	          0.09044614	          0.13371933	          0.06969934	          0.05000095	          0.08314577	          0.19023886	          0.22525465	          0.17946931	          0.16381650	          0.05000042	          0.05000559	          0.11483351	          0.22783215	          0.19006928	          0.16329448	          0.05000015	          0.05000014	          0.29099096	          0.16059330	          0.17955190	          0.05000008	          0.12802455	          0.15717071	          0.11462855	          0.05000004	          0.05000008	          0.05000001	          0.05000001	          0.05000016	          0.05000014	          0.62417571	          0.30798678	          0.16327970	          0.57642125	          0.55306616	          0.29859740	          0.08452008	          0.09477458	          0.06133349	
